<?xml version="1.0" encoding="UTF-8"?>
<svg id="_Слой_1" data-name="Слой 1" xmlns="http://www.w3.org/2000/svg" viewBox="0 0 993.47 800">
  <defs>
    <style>
      .cls-1 {
        fill: #35a9ff;
      }
    </style>
  </defs>
  <path class="cls-1" d="M0,401.97c.82-3.93,1.56-7.87,2.46-11.79,13.24-57.94,81.71-91.96,137.99-54.3,16.98,11.36,31.59,25.26,46.57,38.85,44.56,40.39,89.05,80.85,133.58,121.27,2.37,2.15,4.82,4.23,7.67,6.72,1.19-1.26,2.33-2.41,3.4-3.61,101.04-112.16,206.05-220.4,318.63-321.1,51.77-46.3,104.98-90.93,162.94-129.39,22.03-14.62,44.68-28.69,68.36-40.36,33.9-16.71,73.21-7.2,95.32,20.55,8.5,10.67,13.58,22.83,15.59,36.31,.17,1.13,.62,2.21,.95,3.32v18.25c-1.77,6.1-3.01,12.42-5.4,18.26-6.55,15.97-18.62,27.62-31.73,38.16-23.95,19.26-48.49,37.8-72.15,57.41-58.65,48.6-112.48,102.24-163.4,158.81-106.16,117.93-199.68,245.33-283.88,379.71-6.43,10.26-13.64,20.19-21.58,29.33-35.24,40.56-89.67,42.3-127.64,4.16-7.23-7.27-14.03-15.2-19.8-23.66-33.5-49.09-71.93-94.21-111.07-138.75-39.04-44.43-79.75-87.3-122.12-128.59-17.67-17.22-30.14-37.59-34.01-62.48-.1-.64-.46-1.24-.7-1.86,0-5.07,0-10.14,0-15.21Z"/>
</svg>