<?xml version="1.0" encoding="UTF-8"?>
<svg id="_Слой_1" data-name="Слой 1" xmlns="http://www.w3.org/2000/svg" viewBox="0 0 779.32 768.74">
  <defs>
    <style>
      .cls-1 {
        fill: #fff;
      }

      .cls-2 {
        fill: #0baaf4;
      }
    </style>
  </defs>
  <path class="cls-2" d="M774.06,320.57c-3.46-17-7.03-34.05-12.02-50.64-8.78-29.25-21.51-56.86-37.34-83.05-13.11-21.68-28.22-41.84-45.26-60.49-9.27-10.15-19.56-19.41-29.64-28.79-15.25-14.21-32.09-26.3-49.65-37.55-33.54-21.48-69.51-37.51-107.98-47.28-21.4-5.44-43.38-8.9-65.29-11.83-12.1-1.62-24.59-.29-36.91-.29-21.41-1.54-42.74-.4-63.73,3.94-18.87,3.9-37.84,7.73-56.3,13.18-30.07,8.87-58.29,22.22-85.12,38.52-22.06,13.41-42.86,28.58-61.41,46.48-13.55,13.07-26.22,27.12-38.58,41.35-16.83,19.36-30.32,41.08-42.19,63.76-14.46,27.62-25.14,56.69-32.53,87.01-5.24,21.46-8.58,43.25-9.68,65.22-.88,17.39-.35,34.94,.94,52.32,1.23,16.55,3.7,33.06,6.63,49.4,5.25,29.31,15.28,57.17,27.82,84.1,10.2,21.9,22.45,42.66,36.83,62.05,8.61,11.6,17.5,23.15,27.54,33.49,13.55,13.96,28.01,27.1,42.67,39.92,18.7,16.34,39.77,29.36,61.62,41.05,24.17,12.93,49.52,23.07,75.82,30.77,31.45,9.2,63.59,14.62,96.32,15.44,16.63,.42,33.32-.82,49.96-1.74,23.74-1.31,46.87-6.35,69.65-12.84,32.93-9.37,64.14-22.85,93.69-40.16,23.09-13.53,44.57-29.3,64.14-47.46,15.81-14.66,30.66-30.3,44.01-47.39,14.3-18.32,26.92-37.66,37.76-58.15,14.81-27.99,25.72-57.49,33.21-88.29,5.26-21.62,8.81-43.55,9.68-65.68,1.14-28.86,1.16-57.86-4.66-86.37Zm-192.04-107.58c-1.88,19.27-8.69,37.09-22.35,51.08-29.39,30.12-59.38,59.65-89.18,89.37-2.02,2.01-2.66,3.82-2.14,6.75,7.14,40.61,14.12,81.24,21.13,121.86,6.84,39.68,13.32,79.43,20.77,118.99,1.68,8.91,.43,14.92-6.95,19.98-2.99,2.06-5.39,4.99-8.63,8.08-35.08-64.98-69.94-129.54-105.09-194.64-8.12,7.27-15.65,13.97-23.13,20.72-26.82,24.21-53.54,48.53-80.54,72.54-4.16,3.69-5.13,7.13-4.05,12.38,3.47,16.97,6.51,34.03,9.57,51.08,.27,1.52,.07,3.71-.86,4.75-4.68,5.26-9.68,10.24-15.23,16.01-2.11-3.75-3.79-6.54-5.29-9.42-10.53-20.22-20.92-40.51-31.63-60.63-1.38-2.6-3.93-5.09-6.56-6.44-21.14-10.83-42.43-21.38-63.67-32.03-1.4-.7-2.76-1.51-5.43-2.98,5.85-5.6,10.96-10.69,16.34-15.47,1.03-.91,3.24-1.01,4.79-.75,17.56,2.93,35.12,5.87,52.61,9.15,3.77,.7,5.9-.51,8.22-3.07,23.2-25.57,46.48-51.06,69.73-76.58,8.42-9.24,16.82-18.51,25.91-28.52-64.89-35.03-129.32-69.81-194.68-105.1,5.55-5.81,10.6-11.28,15.91-16.48,.71-.7,2.73-.32,4.08-.08,28.45,4.96,56.89,9.95,85.33,14.98,44.69,7.91,89.39,15.85,134.09,23.78,9.31,1.65,18.69,3.05,27.93,5.07,3.59,.79,5.53-.33,7.88-2.71,29.99-30.2,59.59-60.82,90.38-90.2,13.51-12.89,31.01-20.02,49.82-22.06,14.23-1.54,22.32,6.29,20.92,20.59Z"/>
  <path class="cls-1" d="M582.02,212.99c-1.88,19.27-8.69,37.09-22.35,51.08-29.39,30.12-59.38,59.65-89.18,89.37-2.02,2.01-2.66,3.82-2.14,6.75,7.14,40.61,14.12,81.24,21.13,121.86,6.84,39.68,13.32,79.43,20.77,118.99,1.68,8.91,.43,14.92-6.95,19.98-2.99,2.06-5.39,4.99-8.63,8.08-35.08-64.98-69.94-129.54-105.09-194.64-8.12,7.27-15.65,13.97-23.13,20.72-26.82,24.21-53.54,48.53-80.54,72.54-4.16,3.69-5.13,7.13-4.05,12.38,3.47,16.97,6.51,34.03,9.57,51.08,.27,1.52,.07,3.71-.86,4.75-4.68,5.26-9.68,10.24-15.23,16.01-2.11-3.75-3.79-6.54-5.29-9.42-10.53-20.22-20.92-40.51-31.63-60.63-1.38-2.6-3.93-5.09-6.56-6.44-21.14-10.83-42.43-21.38-63.67-32.03-1.4-.7-2.76-1.51-5.43-2.98,5.85-5.6,10.96-10.69,16.34-15.47,1.03-.91,3.24-1.01,4.79-.75,17.56,2.93,35.12,5.87,52.61,9.15,3.77,.7,5.9-.51,8.22-3.07,23.2-25.57,46.48-51.06,69.73-76.58,8.42-9.24,16.82-18.51,25.91-28.52-64.89-35.03-129.32-69.81-194.68-105.1,5.55-5.81,10.6-11.28,15.91-16.48,.71-.7,2.73-.32,4.08-.08,28.45,4.96,56.89,9.95,85.33,14.98,44.69,7.91,89.39,15.85,134.09,23.78,9.31,1.65,18.69,3.05,27.93,5.07,3.59,.79,5.53-.33,7.88-2.71,29.99-30.2,59.59-60.82,90.38-90.2,13.51-12.89,31.01-20.02,49.82-22.06,14.23-1.54,22.32,6.29,20.92,20.59Z"/>
</svg>