<?xml version="1.0" encoding="UTF-8"?>
<svg id="_Слой_1" data-name="Слой 1" xmlns="http://www.w3.org/2000/svg" viewBox="0 0 838.44 82.32">
  <defs>
    <style>
      .cls-1, .cls-2 {
        fill: gray;
      }

      .cls-2 {
        stroke: gray;
        stroke-linecap: round;
        stroke-miterlimit: 10;
        stroke-width: 4px;
      }
    </style>
  </defs>
  <path class="cls-1" d="M784.34,47.28h-7.99c-3.34,0-6.67,.02-10.01-.02-.63,0-.97,.18-1.27,.73-1.82,3.28-3.67,6.54-5.52,9.8-.28,.49-.59,.96-.87,1.45-.35,.58-.86,.88-1.52,.89-1.64,0-3.28,.03-4.92,0-1.19-.02-1.97-1.12-1.64-2.3,.65-2.32,1.32-4.63,1.99-6.95,.88-3.06,1.77-6.12,2.62-9.18,.09-.33,.08-.73,0-1.06-1.52-5.38-3.07-10.75-4.6-16.12-.37-1.29,.43-2.33,1.79-2.34,1.5-.01,3,.02,4.5-.02,.85-.02,1.45,.28,1.87,1.01,.97,1.68,1.97,3.34,2.93,5.02,1.23,2.16,2.43,4.33,3.66,6.48,.08,.15,.3,.31,.46,.31,6.11,.01,12.21,.01,18.32,0,.05,0,.1-.02,.18-.04-.48-1.35-.95-2.69-1.42-4.03-1.97-5.55-3.93-11.11-5.9-16.66-1.38-3.88-2.76-7.76-4.14-11.63-.4-1.13-.13-1.96,.86-2.44,.27-.13,.61-.17,.92-.17,1.59,0,3.17,.01,4.76,.02,.58,0,1.02,.27,1.33,.73,2.64,3.89,5.28,7.79,7.92,11.68,4.49,6.62,8.98,13.23,13.47,19.85,.52,.77,1.07,1.53,1.57,2.32,.2,.32,.41,.4,.76,.4,6.32,0,12.64-.03,18.95,0,3.02,.01,6.02,.23,8.96,.95,1.53,.38,3,.91,4.27,1.88,2.46,1.87,2.4,4.92-.12,6.71-1.67,1.18-3.56,1.73-5.53,2.1-3.26,.6-6.55,.67-9.85,.65-4.76-.02-9.53,0-14.29,0-.81,0-1.62,0-2.44-.02-.32,0-.51,.09-.69,.36-3.73,5.51-7.46,11.02-11.2,16.53-3.8,5.6-7.62,11.18-11.38,16.8-.64,.96-1.36,1.4-2.51,1.35-1.29-.07-2.6-.04-3.89,0-1.51,.05-2.38-1.33-1.9-2.66,3.6-9.96,7.1-19.95,10.64-29.93,.28-.79,.57-1.58,.88-2.45Z"/>
  <line class="cls-2" x1="746" y1="41.16" x2="2" y2="41.16"/>
</svg>